<svg id="Capa_1" enable-background="new 0 0 512 512" height="512" viewBox="0 0 512 512" width="512" xmlns="http://www.w3.org/2000/svg"><path d="m460.5 424.11v-211.942c0-14.767-7.451-28.537-19.813-36.615l-47.52-31.053h-67.333l-47.52 31.053c-12.362 8.078-19.813 21.848-19.813 36.615v51.832 240.5h202v-80.39z" fill="#fcefde"/><path d="m440.687 175.553-47.52-31.053h-33l47.52 31.053c12.362 8.078 19.813 21.848 19.813 36.615v211.942 80.39h33v-80.39-211.942c0-14.767-7.451-28.537-19.813-36.615z" fill="#fce4c6"/><path d="m258.5 251h202v118h-202z" fill="#a2e1f8"/><path d="m427.5 251h33v118h-33z" fill="#82d5f2"/><path d="m115.967 88.773h-76.385v-65.658c0-8.624 6.991-15.615 15.615-15.615h45.156c8.624 0 15.615 6.991 15.615 15.615v65.658z" fill="#ef75a7"/><path d="m100.353 7.5h-40c8.624 0 15.615 6.991 15.615 15.615v65.658h40v-65.658c-.001-8.624-6.992-15.615-15.615-15.615z" fill="#eb5793"/><path d="m153.833 127.354c-9.952-8.971-22.875-13.936-36.273-13.936h-81.86c-15.575 0-28.2 12.625-28.2 28.2v338.488c0 13.472 10.922 24.394 24.395 24.394h252.678c13.473 0 24.395-10.922 24.395-24.394v-4.042c-.001-132.959-56.378-259.683-155.135-348.71zm48.425 155.262c-7.416.407-14.392-3.493-17.953-10.011-14.473-26.49-32.911-50.899-54.886-72.261-5.088-4.947-7.024-12.3-5.055-19.117l.102-.354c4.129-14.293 22.198-18.686 32.469-7.922 23.456 24.581 43.835 51.672 60.853 80.634 7.319 12.455-1.106 28.239-15.53 29.031z" fill="#fce4c6"/><path d="m153.833 127.354c-9.952-8.971-22.875-13.936-36.273-13.936h-33c13.398 0 26.321 4.965 36.273 13.936 98.757 89.026 155.134 215.751 155.134 348.71v4.042c0 13.472-10.922 24.394-24.395 24.394h33c13.473 0 24.395-10.922 24.395-24.394v-4.042c0-132.959-56.377-259.683-155.134-348.71z" fill="#f8d9b4"/><path d="m24.814 77.773h105.921v35.645h-105.921z" fill="#e7387f"/><path d="m65.523 156.702c13.833 0 25.047 11.214 25.047 25.046v24.19c0 5.123 1.571 10.123 4.501 14.325l64.166 92.025c4.684 6.718 12.356 10.721 20.546 10.721h46.18c10.866 0 20.504 7 23.833 17.343 6.811 21.165 17.552 58.787 21.549 96.305 1.573 14.765-10.071 27.614-24.92 27.614h-180.902c-13.833 0-25.047-11.214-25.047-25.046v-257.477c0-13.832 11.214-25.046 25.047-25.046z" fill="#ef75a7"/><path d="m392.685 144.5h-66.37v-49.666c0-9.573 7.761-17.334 17.334-17.334h31.702c9.573 0 17.334 7.761 17.334 17.334z" fill="#a2e1f8"/><path d="m375.351 77.5h-31.702c-.219 0-.432.025-.649.033 9.27.344 16.685 7.947 16.685 17.301v49.666h33v-49.666c0-9.573-7.76-17.334-17.334-17.334z" fill="#82d5f2"/><path d="m341.23 504.5h155.54c4.269 0 7.73-3.461 7.73-7.73v-11.54c0-4.269-3.461-7.73-7.73-7.73h-155.54c-4.269 0-7.73 3.461-7.73 7.73v11.539c0 4.27 3.461 7.731 7.73 7.731z" fill="#e7c33c"/><path d="m484 477c5.627-5.333 9.121-13.394 9.121-21.871 0-16.672-13.515-30.188-30.188-30.188-7.292 0-13.981 2.586-19.199 6.891-2.689-9.768-11.612-16.953-22.235-16.953-12.485 0-22.649 9.913-23.065 22.297-4.951-2.967-10.743-4.676-16.935-4.676-18.225 0-33 14.775-33 33 0 4.045.728 7.919 2.059 11.5z" fill="#cbf4ff"/><path d="m177.724 276.201c16.809 30.768 64.397 3.995 46.532-26.415-17.403-29.618-38.228-57.211-61.894-82.013-14.257-14.943-39.593-8.212-45.201 11.372-2.747 9.507-.053 19.69 7.031 26.577 21.265 20.673 39.276 44.385 53.532 70.479zm-46.149-92.906c2.472-8.649 13.545-11.863 19.936-5.167 22.87 23.967 42.993 50.632 59.812 79.256 7.888 13.427-13.025 25.197-20.435 11.625-14.977-27.412-33.898-52.324-56.24-74.043-3.104-3.016-4.283-7.484-3.073-11.671z"/><path d="m65.522 149.202c-17.946 0-32.547 14.6-32.547 32.546v257.477c0 17.946 14.601 32.546 32.547 32.546h180.903c18.983 0 34.393-16.998 32.378-35.909-4.138-38.837-15.478-77.95-21.868-97.808-4.34-13.485-16.786-22.545-30.973-22.545h-46.18c-5.734 0-11.114-2.808-14.394-7.511l-64.167-92.026c-2.063-2.957-3.152-6.427-3.152-10.035v-24.189c.001-17.946-14.599-32.546-32.547-32.546zm87.563 167.376c6.082 8.724 16.063 13.932 26.698 13.932h46.18c7.648 0 14.356 4.879 16.693 12.141 6.215 19.309 17.236 57.301 21.231 94.801 1.083 10.167-7.252 19.32-17.462 19.32h-180.903c-9.676 0-17.547-7.871-17.547-17.546v-257.477c0-22.588 35.095-22.626 35.095 0v24.189c0 6.691 2.022 13.128 5.849 18.615z"/><path d="m504.5 470h-6.832c1.923-4.627 2.953-9.687 2.953-14.871 0-19.062-14.229-34.854-32.621-37.337v-72.792c0-9.63-15-9.644-15 0v16.5h-150c-.184 0-.365.015-.545.028-8.487-34.228-20.73-67.375-36.455-98.823v-4.205h187v44.5c0 9.63 15 9.644 15 0v-90.832c0-17.361-8.677-33.396-23.21-42.894l-44.604-29.147v-45.293c0-13.693-11.141-24.834-24.834-24.834h-31.703c-13.693 0-24.834 11.141-24.834 24.834v45.293l-44.604 29.147c-14.533 9.498-23.21 25.532-23.21 42.894v22.854c-24.503-41.871-55.454-80.162-92.146-113.238-6.063-5.465-13.076-9.603-20.619-12.287v-31.725c0-4.142-3.357-7.5-7.5-7.5h-7.269v-47.157c0-12.746-10.369-23.115-23.114-23.115h-45.157c-12.745 0-23.114 10.369-23.114 23.115v47.158h-7.268c-4.143 0-7.5 3.358-7.5 7.5v33.257c-10.366 6.253-17.314 17.623-17.314 30.588v47.382c0 9.63 15 9.644 15 0v-47.382c0-11.414 9.286-20.7 20.7-20.7h81.859c11.563 0 22.662 4.264 31.252 12.007 97.015 87.456 152.655 212.525 152.655 343.139.308 10.495-4.856 20.936-16.895 20.936h-252.676c-9.316 0-16.895-7.579-16.895-16.894v-249.106c0-9.63-15-9.644-15 0v249.106c0 17.586 14.308 31.894 31.895 31.894h327.105c9.63 0 9.644-15 0-15h-18v-12h156v12h-94c-9.63 0-9.644 15 0 15h101.5c4.143 0 7.5-3.358 7.5-7.5v-27c0-4.142-3.357-7.5-7.5-7.5zm-457.418-446.885c0-4.475 3.64-8.115 8.114-8.115h45.156c4.475 0 8.114 3.64 8.114 8.115v46.139h-61.384zm-11.382 82.803h-3.386v-20.646h90.921v20.646h-5.676zm449.921 349.211c0 5.274-1.798 10.462-4.9 14.371h-124.41c-.207-1.314-.311-2.65-.311-4 0-14.061 11.439-25.5 25.5-25.5 4.617 0 9.14 1.248 13.08 3.609 2.28 1.367 5.111 1.423 7.442.154 2.333-1.271 3.819-3.68 3.909-6.335.283-8.439 7.122-15.049 15.568-15.049 6.979 0 13.149 4.706 15.005 11.444.675 2.452 2.546 4.394 4.97 5.161 2.425.766 5.072.251 7.033-1.366 4.046-3.337 9.169-5.176 14.426-5.176 12.51-.001 22.688 10.177 22.688 22.687zm-151.807-360.295c0-5.422 4.411-9.834 9.834-9.834h31.703c5.423 0 9.834 4.412 9.834 9.834v42.166h-51.371zm-51.399 86.997 45.651-29.831h62.867l45.651 29.831c10.279 6.717 16.416 18.058 16.416 30.337v31.332h-187v-31.332c0-12.279 6.137-23.62 16.415-30.337zm51.085 288.169c-4.143 0-7.5 3.358-7.5 7.5v19.5h-14.394c3.075-4.903 4.86-10.692 4.86-16.894v-4.042c0-33.718-3.592-67.079-10.544-99.564h147.078v42.285c-2.083.57-4.116 1.31-6.071 2.226-5.564-8.326-15.04-13.632-25.429-13.632-12.958 0-23.988 7.926-28.454 19.299-3.728-1.108-7.616-1.678-11.546-1.678-22.332 0-40.5 18.168-40.5 40.5 0 1.512.093 3.012.257 4.5z"/></svg>